<?xml version="1.0" encoding="UTF-8"?>
<svg width="94px" height="58px" viewBox="0 0 94 58" version="1.1" xmlns="http://www.w3.org/2000/svg" xmlns:xlink="http://www.w3.org/1999/xlink">
    <title>编组</title>
    <defs>
        <polygon id="path-1" points="0 0.0236389251 17.8206053 0.0236389251 17.8206053 17.8441844 0 17.8441844"></polygon>
        <polygon id="path-3" points="0.121533758 0.113072204 65.9802924 0.113072204 65.9802924 58 0.121533758 58"></polygon>
    </defs>
    <g id="页面-1" stroke="none" stroke-width="1" fill="none" fill-rule="evenodd">
        <g id="吾道官网2.0" transform="translate(-318.000000, -8228.000000)">
            <g id="编组-25" transform="translate(0.000000, 8128.000000)">
                <g id="编组" transform="translate(318.000000, 100.000000)">
                    <g>
                        <mask id="mask-2" fill="white">
                            <use xlink:href="#path-1"></use>
                        </mask>
                        <g id="Clip-2"></g>
                        <path d="M8.63179579,17.8397432 C13.5503432,17.9935958 17.6624905,14.1311747 17.8161537,9.21243789 C17.9701958,4.29389053 14.1073958,0.181932632 9.18884842,0.02808 C4.27030105,-0.125772632 0.158343158,3.73683789 0.00449052632,8.65538526 C0.00164842105,8.74917474 0.00979578947,8.84069053 0.00979578947,8.93391158 L-5.68421053e-05,8.93391158 L-5.68421053e-05,17.7870695 L7.98834316,17.7870695 C8.20150105,17.8092379 8.41428,17.8329221 8.63179579,17.8397432" id="Fill-1" fill="#FFFFFF" mask="url(#mask-2)"></path>
                    </g>
                    <path d="M38.5836612,0.907476816 C35.316682,-0.960587425 31.1391875,0.147855156 29.2531598,3.38371799 L3.91628594,46.8507524 C2.03007202,50.0866153 3.14935971,54.2243213 6.41633883,56.09257 C9.68313172,57.9606342 13.8606262,56.8520072 15.7466539,53.6161444 L41.0837141,10.1491099 C42.969928,6.91343155 41.8506403,2.77572552 38.5836612,0.907476816" id="Fill-3" fill="#FFFFFF"></path>
                    <g transform="translate(28.000000, 0.000000)">
                        <mask id="mask-4" fill="white">
                            <use xlink:href="#path-3"></use>
                        </mask>
                        <g id="Clip-6"></g>
                        <path d="M58.9645109,10.0538645 C54.3245445,4.65189649 47.7552336,0.960094569 40.3249647,0.113072204 L32.0653513,0.113072204 C31.5390151,0.113072204 31.0289479,0.192938019 30.550679,0.336733546 C30.534595,0.336733546 30.5186958,0.352669649 30.5027966,0.352669649 C28.7488975,0.752369329 27.1543597,1.85511054 26.1817378,3.56509137 L1.03647731,47.2281585 C-0.845169748,50.4724524 0.27109916,54.6276984 3.50787227,56.5137176 C6.76072941,58.3836153 10.9063429,57.2647527 12.7720908,54.0204588 L37.2207462,11.6137495 C37.3930487,11.314299 37.7239731,11.1289955 38.0683933,11.1497495 C47.3880739,11.7089955 54.8188975,19.482478 54.8188975,28.9607527 C54.8188975,38.8055578 46.8144101,46.8125227 36.992242,46.8125227 L36.992242,46.8443949 C36.9423261,46.8362415 36.8922252,46.8321649 36.8424941,46.8303118 C34.7820739,46.7521137 32.7737882,47.6782607 31.842763,49.522216 C29.6832504,53.7992064 32.7105613,58.0000371 36.7053176,58.0000371 C36.8008975,58.0000371 36.8966622,58.0000371 36.992242,57.984101 L36.992242,58.0000371 C52.9692336,58.0000371 65.9802924,44.9746824 65.9802924,28.9607527 C65.9802924,21.7366952 63.3334521,15.136184 58.9645109,10.0538645" id="Fill-5" fill="#FFFFFF" mask="url(#mask-4)"></path>
                    </g>
                </g>
            </g>
        </g>
    </g>
</svg>