<?xml version="1.0" encoding="UTF-8"?>
<svg width="65px" height="54px" viewBox="0 0 65 54" version="1.1" xmlns="http://www.w3.org/2000/svg" xmlns:xlink="http://www.w3.org/1999/xlink">
    <title>编组 42</title>
    <g id="页面-1" stroke="none" stroke-width="1" fill="none" fill-rule="evenodd">
        <g id="吾道官网2.0" transform="translate(-1240.000000, -5391.000000)">
            <g id="编组-15" transform="translate(0.000000, 4979.000000)">
                <g id="编组-11" transform="translate(318.015031, 140.000000)">
                    <g id="编组-2" transform="translate(870.000000, 227.000000)">
                        <g id="编组-42" transform="translate(52.000000, 45.000000)">
                            <path d="M44.472136,14.9442719 L60.381966,46.763932 C61.6169123,49.2338245 60.6157905,52.2371897 58.145898,53.472136 C57.4516209,53.8192745 56.6860555,54 55.9098301,54 L24.0901699,54 C21.3287462,54 19.0901699,51.7614237 19.0901699,49 C19.0901699,48.2237745 19.2708954,47.4582092 19.618034,46.763932 L35.527864,14.9442719 C36.7628103,12.4743794 39.7661755,11.4732577 42.236068,12.7082039 C43.203705,13.1920224 43.9883174,13.9766349 44.472136,14.9442719 Z" id="三角形" fill="#E5AFAD" transform="translate(40.000000, 30.000000) rotate(-180.000000) translate(-40.000000, -30.000000) "></path>
                            <path d="M28.472136,8.94427191 L44.381966,40.763932 C45.6169123,43.2338245 44.6157905,46.2371897 42.145898,47.472136 C41.4516209,47.8192745 40.6860555,48 39.9098301,48 L8.09016994,48 C5.32874619,48 3.09016994,45.7614237 3.09016994,43 C3.09016994,42.2237745 3.2708954,41.4582092 3.61803399,40.763932 L19.527864,8.94427191 C20.7628103,6.47437942 23.7661755,5.47325769 26.236068,6.70820393 C27.203705,7.19202244 27.9883174,7.9766349 28.472136,8.94427191 Z" id="三角形" fill="#CE7C79"></path>
                        </g>
                    </g>
                </g>
            </g>
        </g>
    </g>
</svg>