<?xml version="1.0" encoding="UTF-8"?>
<svg width="355px" height="122px" viewBox="0 0 355 122" version="1.1" xmlns="http://www.w3.org/2000/svg" xmlns:xlink="http://www.w3.org/1999/xlink">
    <title>编组 4</title>
    <defs>
        <path d="M217.239906,32.1440309 L227.759244,55.7328492 C228.434053,57.2460573 227.754396,59.0197957 226.241188,59.6946047 C225.453263,60.0459764 224.552208,60.0411333 223.768106,59.681312 L214.575722,55.462963 L214.575722,55.462963 L205.205479,59.7236444 C203.697224,60.409453 201.918584,59.7427286 201.232775,58.2344738 C200.877179,57.4524326 200.873913,56.5554672 201.223807,55.7708576 L211.760094,32.1440309 C212.434903,30.6308228 214.208642,29.951166 215.72185,30.625975 C216.397801,30.9274128 216.938468,31.4680795 217.239906,32.1440309 Z" id="path-1"></path>
        <filter x="-66.8%" y="-42.3%" width="233.5%" height="215.2%" filterUnits="objectBoundingBox" id="filter-2">
            <feOffset dx="0" dy="5" in="SourceAlpha" result="shadowOffsetOuter1"></feOffset>
            <feGaussianBlur stdDeviation="7.5" in="shadowOffsetOuter1" result="shadowBlurOuter1"></feGaussianBlur>
            <feColorMatrix values="0 0 0 0 1   0 0 0 0 0.815686275   0 0 0 0 0.180392157  0 0 0 0.401852054 0" type="matrix" in="shadowBlurOuter1"></feColorMatrix>
        </filter>
        <rect id="path-3" x="229" y="61" width="110" height="40" rx="10"></rect>
        <filter x="-22.7%" y="-50.0%" width="145.5%" height="225.0%" filterUnits="objectBoundingBox" id="filter-4">
            <feOffset dx="0" dy="5" in="SourceAlpha" result="shadowOffsetOuter1"></feOffset>
            <feGaussianBlur stdDeviation="7.5" in="shadowOffsetOuter1" result="shadowBlurOuter1"></feGaussianBlur>
            <feColorMatrix values="0 0 0 0 1   0 0 0 0 0.815686275   0 0 0 0 0.180392157  0 0 0 0.40272618 0" type="matrix" in="shadowBlurOuter1"></feColorMatrix>
        </filter>
    </defs>
    <g id="页面-1" stroke="none" stroke-width="1" fill="none" fill-rule="evenodd">
        <g id="吾道官网2.0" transform="translate(-1204.000000, -682.000000)">
            <g id="编组-12" transform="translate(511.000000, 237.000000)">
                <g id="编组-4" transform="translate(694.000000, 446.000000)">
                    <g id="三角形" transform="translate(214.500000, 44.500000) rotate(-30.000000) translate(-214.500000, -44.500000) ">
                        <use fill="black" fill-opacity="1" filter="url(#filter-2)" xlink:href="#path-1"></use>
                        <use fill="#FFD02E" fill-rule="evenodd" xlink:href="#path-1"></use>
                    </g>
                    <g id="矩形">
                        <use fill="black" fill-opacity="1" filter="url(#filter-4)" xlink:href="#path-3"></use>
                        <use fill="#FFD02E" fill-rule="evenodd" xlink:href="#path-3"></use>
                    </g>
                    <path d="M255.168,87.224 L255.168,84.644 C255.54,84.548 255.9,84.44 256.26,84.332 L256.26,83.156 C255.912,83.252 255.552,83.348 255.168,83.444 L255.168,82.256 L256.236,82.256 L256.236,81.128 L255.168,81.128 L255.168,79.496 L253.92,79.496 L253.92,81.128 L253.236,81.128 C253.488,80.468 253.716,79.724 253.932,78.896 L256.332,78.896 L256.332,77.672 L254.232,77.672 C254.304,77.276 254.388,76.868 254.472,76.46 L253.284,76.184 C253.188,76.7 253.092,77.192 252.996,77.672 L251.904,77.672 L251.904,78.896 L252.708,78.896 C252.468,79.808 252.204,80.564 251.916,81.164 L252.192,82.256 L253.92,82.256 L253.92,83.708 C253.284,83.828 252.6,83.936 251.88,84.032 L252.048,85.256 C252.696,85.16 253.32,85.052 253.92,84.932 L253.92,87.224 L255.168,87.224 Z M250.944,78.752 L251.832,77.864 C251.4,77.348 250.872,76.844 250.248,76.34 L249.396,77.156 C250.068,77.72 250.584,78.248 250.944,78.752 Z M256.608,87.272 C257.376,86.024 257.784,84.344 257.832,82.244 L257.832,81.008 L258.72,81.008 L258.72,87.248 L259.884,87.248 L259.884,81.008 L260.604,81.008 L260.604,79.796 L257.832,79.796 L257.832,78.056 C258.84,77.984 259.752,77.78 260.58,77.456 L259.956,76.352 C258.996,76.76 257.916,76.988 256.692,77.024 L256.692,82.244 C256.644,83.996 256.332,85.364 255.744,86.348 L256.608,87.272 Z M250.896,81.788 L251.784,80.9 C251.376,80.36 250.86,79.832 250.248,79.304 L249.396,80.12 C250.044,80.72 250.536,81.272 250.896,81.788 Z M250.572,87.104 C251.052,85.832 251.496,84.464 251.892,83.012 L250.788,82.58 C250.404,83.948 249.936,85.292 249.408,86.588 L250.572,87.104 Z M272.196,78.104 L272.196,76.952 L267.732,76.952 C267.612,76.628 267.492,76.328 267.372,76.052 L266.088,76.268 C266.208,76.484 266.328,76.712 266.448,76.952 L261.804,76.952 L261.804,78.104 L272.196,78.104 Z M263.532,87.26 L263.532,83.624 L265.308,83.624 C265.104,84.092 264.888,84.5 264.672,84.848 C264.6,84.944 264.444,85.004 264.216,85.028 L264.492,86.144 C266.424,85.928 267.864,85.748 268.812,85.58 C268.884,85.736 268.968,85.904 269.04,86.072 L270.036,85.58 C269.688,84.884 269.328,84.236 268.968,83.624 L270.492,83.624 L270.492,85.796 C270.492,86.024 270.348,86.144 270.084,86.144 L269.244,86.096 L269.544,87.26 L270.468,87.26 C271.284,87.26 271.692,86.852 271.692,86.06 L271.692,82.496 L266.928,82.496 C266.988,82.304 267.048,82.112 267.12,81.92 L270.936,81.92 L270.936,78.488 L269.748,78.488 L269.748,80.888 L268.944,80.888 L269.436,80.12 C269.052,79.892 268.656,79.676 268.236,79.472 C268.572,79.232 268.908,78.968 269.256,78.656 L268.392,78.128 C268.02,78.44 267.624,78.728 267.216,78.992 C266.58,78.704 265.908,78.44 265.212,78.2 L264.696,78.968 C265.176,79.136 265.656,79.328 266.148,79.544 C265.632,79.76 265.092,79.94 264.528,80.084 L265.008,80.888 L264.264,80.888 L264.264,78.488 L263.076,78.488 L263.076,81.92 L265.908,81.92 L265.728,82.496 L262.332,82.496 L262.332,87.26 L263.532,87.26 Z M268.74,80.888 L265.296,80.888 C266.1,80.6 266.748,80.324 267.252,80.06 C267.744,80.3 268.236,80.576 268.74,80.888 Z M265.872,84.932 C266.088,84.548 266.292,84.116 266.496,83.624 L267.744,83.624 C267.936,83.936 268.128,84.26 268.32,84.608 C267.528,84.728 266.712,84.836 265.872,84.932 Z M274.512,87.2 L278.676,76.16 L277.5,76.16 L273.324,87.2 L274.512,87.2 Z M281.832,86.168 C282.828,86.168 283.548,85.916 284.004,85.412 C284.412,84.932 284.616,84.212 284.616,83.228 L284.616,77.432 L283.212,77.432 L283.212,83.18 C283.212,83.792 283.104,84.236 282.888,84.512 C282.672,84.788 282.324,84.932 281.856,84.932 C281.004,84.932 280.584,84.44 280.584,83.456 L280.584,83.192 L279.18,83.192 L279.18,83.468 C279.18,84.308 279.408,84.968 279.864,85.448 C280.308,85.928 280.968,86.168 281.832,86.168 Z M289.056,86.168 C289.992,86.168 290.76,85.856 291.336,85.232 C291.888,84.632 292.176,83.852 292.176,82.904 C292.176,81.944 291.888,81.164 291.324,80.552 C290.748,79.928 289.992,79.628 289.056,79.628 C288.108,79.628 287.352,79.928 286.788,80.552 C286.212,81.164 285.936,81.944 285.936,82.904 C285.936,83.852 286.212,84.632 286.776,85.232 C287.352,85.856 288.108,86.168 289.056,86.168 Z M289.056,85.052 C288.48,85.052 288.048,84.824 287.736,84.38 C287.472,83.996 287.34,83.504 287.34,82.904 C287.34,82.304 287.472,81.8 287.736,81.416 C288.048,80.96 288.48,80.744 289.056,80.744 C289.62,80.744 290.064,80.96 290.376,81.416 C290.64,81.8 290.784,82.304 290.784,82.904 C290.784,83.492 290.64,83.984 290.376,84.38 C290.064,84.824 289.62,85.052 289.056,85.052 Z M294.744,86 L294.744,82.532 C294.744,82.004 294.864,81.584 295.116,81.248 C295.356,80.912 295.692,80.744 296.124,80.744 C296.592,80.744 296.94,80.888 297.18,81.188 C297.384,81.464 297.492,81.872 297.492,82.4 L297.492,86 L298.86,86 L298.86,82.16 C298.86,81.332 298.68,80.708 298.332,80.288 C297.96,79.844 297.396,79.628 296.64,79.628 C296.244,79.628 295.896,79.7 295.596,79.856 C295.26,80.024 294.972,80.276 294.744,80.624 L294.744,77.264 L293.376,77.264 L293.376,86 L294.744,86 Z M301.668,86 L301.668,82.268 C301.716,81.776 301.884,81.392 302.172,81.128 C302.424,80.888 302.724,80.768 303.06,80.768 C303.996,80.768 304.464,81.272 304.464,82.292 L304.464,86 L305.832,86 L305.832,82.172 C305.832,80.468 305.052,79.628 303.504,79.628 C303.132,79.628 302.796,79.7 302.484,79.856 C302.184,80 301.908,80.228 301.668,80.516 L301.668,79.796 L300.3,79.796 L300.3,86 L301.668,86 Z M308.64,86 L308.64,82.268 C308.688,81.776 308.856,81.392 309.144,81.128 C309.396,80.888 309.696,80.768 310.032,80.768 C310.968,80.768 311.436,81.272 311.436,82.292 L311.436,86 L312.804,86 L312.804,82.172 C312.804,80.468 312.024,79.628 310.476,79.628 C310.104,79.628 309.768,79.7 309.456,79.856 C309.156,80 308.88,80.228 308.64,80.516 L308.64,79.796 L307.272,79.796 L307.272,86 L308.64,86 Z M316.416,88.376 L319.776,79.796 L318.288,79.796 L316.716,84.212 L315.072,79.796 L313.584,79.796 L316.044,85.856 L314.952,88.376 L316.416,88.376 Z" id="渐离/Johnny" fill="#000000" fill-rule="nonzero"></path>
                    <path d="M0,47.0495424 C21.8390383,70.1377234 39.6587834,75.9097687 53.4592352,64.3656782 C74.159913,47.0495424 46.5392482,15.7227683 66.8770398,18.51268 C87.2148314,21.3025917 149.342015,45.8872289 149.342015,18.51268 C149.342015,-8.86186895 183.185638,-3.32516074 195.259686,18.51268" id="路径-2" stroke="#000000" stroke-width="1.5"></path>
                </g>
            </g>
        </g>
    </g>
</svg>