<?xml version="1.0" encoding="UTF-8"?>
<svg width="158px" height="101px" viewBox="0 0 158 101" version="1.1" xmlns="http://www.w3.org/2000/svg" xmlns:xlink="http://www.w3.org/1999/xlink">
    <title>编组</title>
    <defs>
        <polygon id="path-1" points="0.0784146341 0.0662195122 67.7831185 0.0662195122 67.7831185 9.93031359 0.0784146341 9.93031359"></polygon>
        <polygon id="path-3" points="0 0.0279094077 62.1839424 0.0279094077 62.1839424 36.9460279 0 36.9460279"></polygon>
        <polygon id="path-5" points="0 99.9513937 157.214286 99.9513937 157.214286 0 0 0"></polygon>
    </defs>
    <g id="页面-1" stroke="none" stroke-width="1" fill="none" fill-rule="evenodd">
        <g id="线条-更多属性" transform="translate(-1691.000000, -500.000000)">
            <g id="编组" transform="translate(1691.000000, 500.000000)">
                <path d="M149.026167,99.5289547 L99.3345296,99.5289547 L102.777038,99.5289547 L134.20561,99.1648432 C140.015714,98.6596167 144.109791,92.9610105 141.902474,87.5655401 C141.520941,86.6333101 141.919895,86.3739024 141.44777,85.4749477 C136.507003,76.1718118 127.940801,68.5934146 118.233484,64.1909756 C118.473902,64.1455052 118.716237,64.1125784 118.963449,64.0794774 C117.15561,63.1740767 115.293937,62.3810453 113.388537,61.7049129 C112.378084,61.3441115 111.35561,61.0185017 110.33453,60.7327875 C105.315366,59.3179791 98.5331359,59.9643206 96.3972474,65.5219861 C94.6010801,70.1874913 96.9860976,75.8233798 101.47216,77.8669338 L109.529652,80.9470732 C109.461707,80.8460279 109.400732,80.7449826 109.338014,80.6387108 L116.344983,83.3162369 C116.721638,83.5801742 116.813275,84.0995122 116.549338,84.4763415 C116.410836,84.6739024 116.19324,84.8019512 115.952997,84.8266899 L98.9355749,86.6855749 C96.4826132,86.9331359 93.4111847,87.9592683 91.6028223,89.6472474 C90.284007,90.8667596 89.1725087,92.5272125 89.1829617,94.6282578 C88.0707666,94.7120557 86.9651916,94.8672822 85.8728571,95.0934146 C84.2056098,95.4522997 82.5087456,96.0705923 82.3885366,97.0862718 C82.1516028,99.1247735 85.0488153,99.5394077 86.8745993,99.5394077 L75.3205923,99.4941115 C76.5610105,99.4941115 76.7143206,99.4836585 77.5366202,98.6648432 C78.3589199,97.8460279 79.2787805,97.2153659 79.2787805,95.9749477 L79.3798258,91.9991638 C79.3798258,91.1805226 79.5749477,90.5183275 78.7561324,90.5183275 L71.4390592,90.5183275 C72.0475958,90.5350523 72.6094425,90.1944599 72.8763415,89.6472474 C72.8819164,89.6409756 72.8855749,89.6331359 72.8867944,89.6245993 C73.2526481,88.945331 73.3362718,87.9679791 73.2683275,87.042892 L73.3536934,86.7397561 L73.5732056,85.9313937 L78.2212892,83.1962021 C78.2561324,83.175993 78.2899303,83.1538676 78.3223345,83.13 C80.7474216,81.6472474 81.0505575,78.9974216 80.219547,76.6282578 C80.2021254,76.5829617 80.1916725,76.542892 80.1742509,76.5045645 C80.1359233,76.4035192 80.1010801,76.3077003 80.0575261,76.2118815 C79.8357491,75.6716376 79.5608362,75.1545645 79.2369686,74.6683275 C78.0366202,72.7937631 76.2944599,71.2658885 74.6394077,70.8667596 C74.175122,70.7620557 73.7007317,70.7094425 73.2247735,70.7101394 C78.9843554,65.3094425 85.6202439,60.5096167 93.458223,58.9139721 C100.315889,57.4970732 107.408223,57.6820906 114.182962,59.4540418 C122.099338,61.5603136 129.228258,65.9331359 134.881568,71.8390592 C142.491324,79.7780836 146.050557,89.0533449 149.026167,99.5289547" id="Fill-1" fill="#353642"></path>
                <path d="M71.6045819,75.6596516 C71.3314111,76.1974564 70.8843728,76.6272474 70.3362892,76.8791638 C69.8681707,77.1145296 69.3723519,77.2899652 68.8606794,77.4018118 C68.0174739,77.5429268 67.7195645,77.0098258 67.1812369,76.4871777 C66.8742683,76.1904878 66.5213066,75.9458885 66.1359408,75.762439 C65.6683449,75.5326481 65.1225261,75.5244599 64.6481359,75.7397909 C64.3240941,75.8840418 64.1152091,76.2056446 64.1150348,76.5603484 C64.149878,77.1997213 65.0314111,77.7047735 65.529669,77.9697561 C66.1801916,78.276899 66.856324,78.5265505 67.5505749,78.7154007 C69.2526655,79.2380488 66.4181707,80.326899 65.8223519,80.3948432 C64.5479617,80.5673171 63.2544077,80.5366551 61.9895993,80.3042509 C62.3528397,81.1154007 62.6312369,81.9619164 62.8206098,82.8303833 C63.0174739,83.6613937 63.247439,84.6613937 63.0854181,85.4976307 C62.888554,86.4800348 62.2247909,87.2101742 61.4059756,87.7049477 L58.2230488,74.4262021 C60.5956969,73.2960627 63.332108,73.2063415 65.7735714,74.1788153 C66.5958711,74.4819512 67.5197387,74.27777 68.1376829,73.6561672 L68.4634669,73.340662 C68.9171254,73.2420557 69.3899477,73.2796864 69.8223519,73.4488502 C70.5941289,73.7396167 72.0227003,74.675331 71.6045819,75.6596516" id="Fill-3" fill="#005CFF"></path>
                <g transform="translate(12.020906, 90.021080)">
                    <mask id="mask-2" fill="white">
                        <use xlink:href="#path-1"></use>
                    </mask>
                    <g id="Clip-6"></g>
                    <path d="M0.943397213,5.42162021 C1.15977352,7.47405923 2.90263066,9.08381533 5.0095993,9.0888676 L62.8484495,9.0888676 C65.0946167,9.08120209 66.9313763,7.2465331 66.9416551,4.99897213 L66.9416551,1.96952962 C66.9416551,1.38398955 66.4653484,0.907682927 65.8798084,0.907682927 L50.0742334,0.907682927 C49.615,3.5062892 47.3616899,5.42144599 44.6857317,5.42162021 L44.6846864,5.42162021 L0.943397213,5.42162021 Z M62.8498432,9.93033101 L5.00872822,9.93033101 C2.2965331,9.92405923 0.0855574913,7.71308362 0.0792857143,5.0019338 L0.0784146341,4.58015679 L44.6846864,4.58015679 L44.6857317,4.58015679 C47.0583798,4.58015679 49.0379965,2.80141115 49.290784,0.4421777 L49.3310279,0.0662195122 L65.8798084,0.0662195122 C66.9292857,0.0662195122 67.7831185,0.919878049 67.7831185,1.96952962 L67.7831185,5.0008885 C67.7707491,7.7106446 65.5576829,9.92109756 62.8498432,9.93033101 L62.8498432,9.93033101 Z" id="Fill-5" fill="#000000" mask="url(#mask-2)"></path>
                </g>
                <g transform="translate(0.000000, 58.487979)">
                    <mask id="mask-4" fill="white">
                        <use xlink:href="#path-3"></use>
                    </mask>
                    <g id="Clip-8"></g>
                    <path d="M5.47301394,0.869372822 C5.10698606,0.869372822 4.74165505,0.912926829 4.38625436,0.998815331 C1.90385017,1.59864111 0.372142857,4.1061324 0.971794425,6.58836237 L7.19148084,32.5474216 C7.69374564,34.640453 9.54810105,36.1031707 11.7007143,36.1045645 L56.7055923,36.1045645 L56.7062892,36.1045645 C59.0791115,36.1045645 61.0589024,34.3258188 61.3116899,31.9665854 C61.373885,31.4343554 61.3411324,30.9045645 61.215,30.3881882 L54.9879965,4.42843206 C54.8474042,3.8387108 54.5961847,3.29114983 54.2413066,2.80038328 L54.0219686,2.52337979 C53.1503659,1.47494774 51.8599477,0.869372822 50.4866028,0.869372822 L50.4796341,0.869372822 L5.48085366,0.869372822 L5.47301394,0.869372822 Z M56.7062892,36.9460279 L56.7055923,36.9460279 L11.7003659,36.9460279 C9.15716028,36.9442857 6.96656794,35.2162369 6.37318815,32.7435889 L0.153501742,6.78522648 C-0.554860627,3.85264808 1.2552439,0.889581882 4.18851916,0.18087108 C4.6116899,0.0787804878 5.04740418,0.0340069686 5.48155052,0.0279094077 L50.4791115,0.0279094077 L50.4872997,0.0279094077 C52.1108188,0.0279094077 53.6371254,0.743937282 54.675453,1.99324042 L54.9170906,2.29898955 C55.3402613,2.88174216 55.6393902,3.53226481 55.8064634,4.23261324 L62.0329443,30.1902787 C62.1824216,30.8024739 62.2212718,31.4322648 62.1479268,32.0601394 C61.849669,34.8439373 59.5099477,36.9460279 56.7062892,36.9460279 L56.7062892,36.9460279 Z" id="Fill-7" fill="#000000" mask="url(#mask-4)"></path>
                </g>
                <path d="M35.7389373,77.4133798 C36.6471254,80.2938676 35.305662,83.2839373 32.7425958,84.0921254 C30.1797038,84.9003136 27.3657666,83.2201742 26.4575784,80.3398606 C25.5493902,77.4593728 26.8908537,74.4693031 29.4537456,73.661115 C32.0166376,72.8529268 34.8305749,74.532892 35.7389373,77.4133798 Z" id="Fill-9" fill="#DCE5F6"></path>
                <path d="M119.209024,63.9278049 C115.238641,64.5917422 112.186376,66.406899 110.13777,70.1649129 C108.303101,73.5272822 108.088815,77.6298955 110.045261,80.9663066 L102.057631,77.9035889 C97.4320209,75.785122 95.8048432,71.0776307 97.658676,66.2431359 C99.8623345,60.483554 106.85554,59.8147387 112.031498,61.2816376 C113.085505,61.5778049 114.13777,61.9156098 115.179408,62.2886063 C116.540732,62.7764111 117.883937,63.3227526 119.209024,63.9278049" id="Fill-11" fill="#353642"></path>
                <path d="M145.80284,88.8915679 L145.173049,88.3337282 C151.801969,80.8480139 154.548484,70.5339024 152.520087,60.7433101 C150.796916,52.3943554 145.925314,45.2168293 138.802491,40.5325087 C131.680017,35.8481882 123.159808,34.2189199 114.813467,35.9445296 C113.351272,36.2445296 111.897091,36.6495819 110.490993,37.1485366 L109.942038,37.3431359 L109.929669,36.7610801 C109.881585,34.5035889 109.626359,32.2377352 109.171481,30.0265854 C107.199181,20.4609059 101.617648,12.2368641 93.4551045,6.86961672 C85.2937805,1.5030662 75.529669,-0.365400697 65.9613763,1.60829268 C56.3951742,3.58146341 48.1695645,9.16247387 42.799878,17.3236237 C37.4308885,25.483554 35.5575436,35.2483624 37.5254878,44.8187456 C37.9028397,46.6455749 38.4244425,48.4589895 39.0754878,50.2079443 L39.232108,50.628676 L38.8021429,50.75777 C33.8981359,52.2297213 29.6495296,55.1481882 26.5157317,59.1976655 L25.8502265,58.6825087 C29.0010976,54.6110801 33.2408188,51.6450523 38.1341986,50.0837282 C37.5389024,48.4244948 37.0575436,46.7126481 36.7012718,44.9886063 C34.6882056,35.1978397 36.6044077,25.2086411 42.0970906,16.8610801 C47.5902962,8.51229965 56.0051045,2.80271777 65.7913415,0.784076655 C75.5794948,-1.23526132 85.5683449,0.676585366 93.9174739,6.16648084 C102.267822,11.6574216 107.978101,20.0708362 109.995697,29.8570732 C110.422178,31.9300697 110.676882,34.0501045 110.754059,36.1675261 C112.026359,35.7410453 113.331934,35.3894774 114.643606,35.1204878 C123.209983,33.3494077 131.954582,35.0215331 139.265035,39.829547 C146.575662,44.6372125 151.575662,52.0041115 153.344129,60.5727526 C154.370958,65.5285017 154.225139,70.7332056 152.9227,75.6239721 C151.620436,80.5145645 149.158415,85.1025436 145.80284,88.8915679" id="Fill-13" fill="#9F9F9F"></path>
                <path d="M148.943659,99.6402265 C145.735296,88.3294251 140.901672,79.0698432 134.577282,72.1186237 C134.310906,71.8160105 134.03007,71.5116551 133.714042,71.1829094 C127.985296,65.1980662 120.893136,60.9534669 113.203763,58.9076481 C106.528502,57.1576481 99.4260627,56.9689721 92.6650871,58.3625261 C84.335122,60.0606098 77.5297213,65.4170557 72.3426132,70.3327352 C72.6863415,70.2909233 73.0018467,70.2816899 73.2548084,70.2806446 C73.7537631,70.2806446 74.2542857,70.3369164 74.7417422,70.4480662 C76.4272822,70.8538153 78.2870383,72.3802962 79.6001045,74.4329094 C79.9251916,74.9431882 80.211777,75.4822125 80.4520209,76.0353484 L80.5102091,76.1778571 C80.5319861,76.2304704 80.5537631,76.2837805 80.5757143,76.339007 C80.5882578,76.3707143 80.598885,76.4013763 80.6096864,76.4332578 L80.6241463,76.4755923 C81.7426132,79.4384843 81.0858188,81.9909233 78.8649129,83.2973693 L78.5410453,83.4841289 L73.7326829,86.3194948 L73.8807666,87.4614808 C73.9703136,88.309216 73.7499303,89.1458014 73.2609059,89.8311672 C73.2467944,89.856777 73.2304181,89.880993 73.2119512,89.9036411 C72.6866899,90.56723 71.8694425,90.9482404 71.0229268,90.9302962 L69.7980139,90.9304704 L69.7980139,90.089007 L71.0330314,90.089007 C71.605331,90.0985889 72.1485366,89.8579965 72.5114286,89.430993 L72.5114286,89.4306446 L72.5575958,89.3675784 C72.9398258,88.8451045 73.1128223,88.2029443 73.0450523,87.5590418 L72.8248432,85.8707143 L73.3724042,85.5560801 L78.4415679,82.5703659 C79.3210105,82.0529443 81.2241463,80.4477178 79.8345993,76.7663589 L79.8124739,76.7024216 C79.8060279,76.6839547 79.8002787,76.6661847 79.7931359,76.6482404 C79.773101,76.5973693 79.7525436,76.5475436 79.7323345,76.4984146 L79.6753659,76.3588676 C79.4574216,75.8578223 79.1919164,75.3581707 78.8908711,74.8856969 C77.6906969,73.0099129 76.0272822,71.6231533 74.5495819,71.26723 C74.1225784,71.1698432 73.6818118,71.1233275 73.2349477,71.122108 C72.1450523,71.122108 71.2858188,71.3520732 70.8724042,71.7536411 C70.8687456,71.7571254 70.8649129,71.7609582 70.8614286,71.7644425 L70.2696167,71.1661847 L70.2711847,71.1646167 C70.2750174,71.160784 70.278676,71.1572997 70.2825087,71.1534669 C75.7105575,65.8142683 83.1387805,59.4458014 92.4960976,57.5383101 C99.3819861,56.1189721 106.617178,56.310784 113.418571,58.0940592 C121.25899,60.180122 128.486341,64.5045122 134.321185,70.6005052 C134.645401,70.9376132 134.934425,71.2508537 135.204286,71.5576481 C141.612474,78.6006794 146.508815,87.9735017 149.753066,99.4106098 L148.943659,99.6402265 Z" id="Fill-15" fill="#000000"></path>
                <mask id="mask-6" fill="white">
                    <use xlink:href="#path-5"></use>
                </mask>
                <g id="Clip-18"></g>
                <polygon id="Fill-17" fill="#000000" mask="url(#mask-6)" points="71.9703833 99.9513937 157.214286 99.9513937 157.214286 99.1099303 71.9703833 99.1099303"></polygon>
                <line x1="93.430331" y1="99.5289547" x2="103.102979" y2="99.5289547" id="Stroke-19" stroke="#000000" stroke-width="3.22" mask="url(#mask-6)"></line>
                <path d="M101.678206,77.4332927 L116.469495,83.0848606 L116.512526,83.1153484 C116.80939,83.3244077 117.000854,83.6517596 117.037962,84.0130836 C117.072282,84.3465331 116.974721,84.6735366 116.763049,84.9334669 C116.551376,85.1935714 116.251028,85.3557666 115.917578,85.3899129 L98.2620035,87.173885 C95.8118293,87.4210976 93.5473693,88.4069861 91.8856969,89.9505401 C89.7715854,91.9156969 89.1217596,94.1599477 89.954338,96.6205749 C90.460784,98.1083798 91.8578223,99.1082056 93.4302962,99.1082056 L103.102944,99.1082056 L134.508693,98.740784 C135.331167,98.6677875 136.135871,98.4719686 136.900854,98.1583798 C141.097369,96.4378223 143.111829,91.623885 141.391272,87.4271951 C141.026289,86.534338 140.649286,85.6115157 140.178554,84.7223171 C134.806429,74.6033275 124.754338,66.1298084 113.289355,62.0559408 C112.290226,61.6993206 111.272108,61.3751045 110.262875,61.0925261 C105.185523,59.6602962 98.81723,60.4697038 96.8318641,65.6294599 C95.130122,70.0519338 97.3492857,75.4541986 101.678206,77.4332927 L101.678206,77.4332927 Z M93.4302962,99.949669 C91.4973693,99.949669 89.7802962,98.7205749 89.1574739,96.8911324 C88.2224564,94.1270209 88.9677526,91.5141289 91.3128746,89.3341638 C93.1083449,87.6665679 95.5461498,86.602108 98.1773345,86.336777 L115.832213,84.5528049 C115.94162,84.5416551 116.040401,84.4879965 116.110261,84.4024564 C116.179948,84.3167422 116.212178,84.2090767 116.200854,84.0991463 C116.190226,83.9944425 116.140226,83.8986237 116.062003,83.8301568 L101.341272,78.204547 C96.6137456,76.0517596 94.189007,70.1547213 96.0464983,65.3273693 C98.2214111,59.675453 105.058519,58.7505401 110.490575,60.2825958 C111.517753,60.5702265 112.554861,60.9003659 113.571934,61.2634321 C125.229077,65.4054181 135.453641,74.027892 140.922108,84.3280662 C141.412526,85.2547213 141.797544,86.19723 142.170017,87.108554 C144.066359,91.7339895 141.845801,97.0404355 137.220017,98.9369512 C136.371585,99.2846864 135.478554,99.5012369 134.56601,99.5805052 L134.534652,99.5820732 L103.107822,99.949669 L93.4302962,99.949669 Z" id="Fill-20" fill="#000000" mask="url(#mask-6)"></path>
                <path d="M94.7609408,99.8908188 C92.9710453,98.7315854 91.3128571,96.6477875 92.0274913,94.2753136 C92.7097213,92.0120732 94.8362021,90.5098084 96.0428223,89.8157317 L96.4625087,90.5451742 C95.3639024,91.1770557 93.431324,92.5335017 92.8332404,94.5179965 C92.2529268,96.4441289 93.6848084,98.1913415 95.2182578,99.1843728 L94.7609408,99.8908188 Z" id="Fill-21" fill="#000000" mask="url(#mask-6)"></path>
                <path d="M96.9032578,99.8591812 C96.3605749,99.4067422 95.9290418,98.8238153 95.6556969,98.17277 C94.6285192,95.624338 96.3253833,93.6034321 97.6908885,92.3043031 L98.2710279,92.9140592 C96.3833972,94.7097038 95.7995993,96.2788676 96.4339199,97.852561 C96.6529094,98.3741638 97.0022125,98.8464634 97.4419338,99.2126655 L96.9032578,99.8591812 Z" id="Fill-22" fill="#000000" mask="url(#mask-6)"></path>
                <path d="M99.4254704,99.8680314 C98.684007,99.3474739 98.5214634,98.7300523 98.5155401,98.3037456 C98.5134495,98.1389373 98.5552613,96.6483449 100.679303,95.0692509 L101.181568,95.7445122 C100.669373,96.1262195 99.3432404,97.3284843 99.3570035,98.2931185 C99.3618815,98.6321429 99.5423693,98.9218641 99.9089199,99.1793554 L99.4254704,99.8680314 Z" id="Fill-23" fill="#000000" mask="url(#mask-6)"></path>
                <path d="M92.6436411,99.9513937 L86.5208188,99.9513937 C84.4668118,99.9513937 83.1401568,99.5824042 82.4648955,98.8233449 C82.0702962,98.3797909 81.9093206,97.8210801 81.986324,97.162892 C82.109669,96.1087108 83.3525261,95.3165505 85.785453,94.741115 C87.4608885,94.3445993 89.0776132,94.2043554 89.1457317,94.1986063 L89.2169861,95.0369338 C86.6441638,95.2562718 82.9589721,96.0912892 82.8220383,97.2609756 C82.7734321,97.6759582 82.8622822,98.004007 83.0936411,98.2641115 C83.5929443,98.8252613 84.7460801,99.1099303 86.5208188,99.1099303 L92.1063589,99.1099303 L92.1063589,99.2681185 L92.4537456,99.1824042 L92.6436411,99.9513937 Z" id="Fill-24" fill="#000000" mask="url(#mask-6)"></path>
                <path d="M82.0261672,35.187439 L70.1394077,36.9661847 L72.2108362,38.426115 L76.0854007,41.5289024 C76.6916725,41.9559059 76.5401045,42.9627003 76.8763415,43.5743728 C77.2378397,46.1876132 75.4124042,48.5991115 72.7989895,48.960784 C71.5965505,49.1271603 70.3758188,48.8294251 69.3850523,48.1282056 L60.0383624,41.5532927 C59.0066551,40.8409233 58.1786063,39.8717596 57.6359233,38.741446 C56.871115,34.9348258 59.2178049,30.7013763 63.7334843,30.0306446 L76.7265157,28.0794251 L74.8101394,26.5916202 L68.9094425,21.9992857 C68.4040418,21.6079965 67.9822648,21.1191463 67.6690244,20.5620035 C67.3052613,17.9470209 69.1301742,15.5322125 71.7451568,15.1684495 C73.0286063,14.989878 74.3296516,15.3400523 75.3502091,16.1386585 L85.8763415,24.3268118 C86.7371429,24.9879617 87.4329617,25.8395296 87.9096167,26.8146167 C88.6272125,30.4942334 86.3310453,34.5410976 82.0261672,35.187439" id="Fill-25" fill="#005CFF" mask="url(#mask-6)"></path>
                <path d="M72.8625436,86.1410279 C72.7660279,85.2971254 72.3163763,82.9248258 71.4059233,82.0920732 L71.9738676,81.470993 C73.3031359,82.6871951 73.683101,85.9093206 73.6986063,86.0459059 L72.8625436,86.1410279 Z" id="Fill-26" fill="#000000" mask="url(#mask-6)"></path>
                <path d="M58.2864983,75.0267596 L57.9155923,74.2713589 C60.4162892,73.0431359 63.3345819,72.9304181 65.9223868,73.9622997 C66.5793554,74.2044599 67.3344077,74.0373868 67.8359756,73.5337282 L70.2666376,71.1534146 L70.8553136,71.7546341 L68.4284843,74.1309408 C67.6993902,74.8638676 66.5957317,75.1074216 65.620993,74.7476655 C63.2436411,73.8002787 60.5741289,73.9030662 58.2864983,75.0267596" id="Fill-27" fill="#000000" mask="url(#mask-6)"></path>
                <path d="M67.9743031,89.5513415 C67.875,89.5513415 67.7756969,89.5318293 67.6810976,89.4928049 L65.64277,88.5762544 L65.9880662,87.809007 L67.9351045,88.6846167 L68.2424216,87.9894948 L69.012108,88.3297387 L68.7018293,89.0314808 C68.6966028,89.0464634 68.6910279,89.0612718 68.6851045,89.0759059 C68.60723,89.2647561 68.4594948,89.4128397 68.2697735,89.4919338 C68.1746516,89.5314808 68.0744774,89.5513415 67.9743031,89.5513415" id="Fill-28" fill="#000000" mask="url(#mask-6)"></path>
                <path d="M66.1463937,84.1683449 C66.492561,84.9631185 66.3646864,85.8847213 65.8153833,86.5551045" id="Stroke-29" stroke="#000000" stroke-width="3.22" mask="url(#mask-6)"></path>
                <path d="M68.4173868,90.0901394 C69.0247038,90.0181882 69.8475261,88.955122 69.9687805,88.2613937 C70.0247038,87.9483275 70.2825436,87.7389199 70.6105923,87.7389199 C70.9921254,87.7389199 71.3276655,88.0068641 71.3914286,88.3622648 C71.4645993,88.771324 71.5290592,90.094669 71.0909059,90.7434495 L70.3935192,90.2725436 C70.5447387,90.048676 70.609547,89.485784 70.6034495,89.0106969 C70.2226132,89.8627875 69.3891638,90.8221951 68.5165157,90.9258537 L68.4173868,90.0901394 Z" id="Fill-30" fill="#000000" mask="url(#mask-6)"></path>
                <path d="M66.6516028,82.6464983 C65.4495122,82.6464983 64.4712892,83.624547 64.4712892,84.8268118 C64.4712892,86.0290767 65.4495122,87.0071254 66.6516028,87.0071254 C67.8538676,87.0071254 68.8319164,86.0290767 68.8319164,84.8268118 C68.8319164,83.624547 67.8538676,82.6464983 66.6516028,82.6464983 M66.6516028,87.8485889 C64.9854007,87.8485889 63.6298258,86.4930139 63.6298258,84.8268118 C63.6298258,83.1606098 64.9854007,81.8050348 66.6516028,81.8050348 C68.3178049,81.8050348 69.6733798,83.1606098 69.6733798,84.8268118 C69.6733798,86.4930139 68.3178049,87.8485889 66.6516028,87.8485889" id="Fill-31" fill="#000000" mask="url(#mask-6)"></path>
                <path d="M62.3921603,90.2963589 L61.5956446,90.0247561 L61.6052265,89.9987979 C62.1111498,88.5784146 63.6015679,87.7700523 65.0519164,88.0693554 L65.3841463,87.1352091 L66.1770035,87.417439 L65.5722997,89.1169164 L65.175784,88.9756272 C64.0445993,88.5724913 62.7956446,89.165 62.3921603,90.2963589" id="Fill-32" fill="#000000" mask="url(#mask-6)"></path>
                <path d="M68.8536934,84.8268118 C68.8536934,86.0430139 67.8678049,87.0289024 66.6516028,87.0289024 C65.4354007,87.0289024 64.4495122,86.0430139 64.4495122,84.8268118 C64.4495122,83.6106098 65.4354007,82.6247213 66.6516028,82.6247213 C67.8678049,82.6247213 68.8536934,83.6106098 68.8536934,84.8268118 Z" id="Fill-33" fill="#FFFFFF" mask="url(#mask-6)"></path>
                <path d="M61.1779268,87.515331 C61.747439,87.1714286 62.4669512,86.5574913 62.6606794,85.5878049 C62.8094599,84.8256098 62.573223,83.8280488 62.4007491,83.0998258 C62.2164286,82.254007 61.9460453,81.4317073 61.5951742,80.6486063 L61.2681707,79.9184669 L62.0551045,80.062892 C63.2779268,80.287108 64.5225261,80.3156794 65.7552787,80.1487805 C66.3056272,80.0872822 67.2850697,79.6078397 67.5835017,79.3519164 C67.5429094,79.3334495 67.4882056,79.3121951 67.4155575,79.289547 C66.7132927,79.0994774 66.010331,78.8390244 65.3402962,78.5202091 C64.6434321,78.1602787 63.7287979,77.5928571 63.6878571,76.7552265 C63.6810627,76.2195122 63.9826307,75.7437282 64.4559756,75.5277003 C65.0493554,75.2602787 65.7227003,75.2721254 66.3049303,75.5594077 C66.7275784,75.7581882 67.1179965,76.0289199 67.4575436,76.3602787 C67.553885,76.4533101 67.6437805,76.5477352 67.7301916,76.6385017 C68.1300174,77.0585366 68.31277,77.2266551 68.7681707,77.1587108 C69.2392509,77.0560976 69.6962195,76.8933798 70.1265331,76.6747387 C70.5983101,76.4583624 70.9763589,76.0984321 71.2071951,75.6526132 C71.2620732,75.5170732 71.2561498,75.3811847 71.1889024,75.2261324 C70.9601568,74.6989547 70.156324,74.208885 69.6585889,74.0292683 C69.2918641,73.8853659 68.9061498,73.8538328 68.532108,73.9332753 L68.3564983,73.1106272 C68.8922125,72.9961672 69.4453484,73.0414634 69.9552787,73.2419861 C70.4770557,73.4301394 71.5841986,74.0231707 71.9608537,74.8912892 C72.1216551,75.2621951 72.1268815,75.6444251 71.9754878,75.9965157 L71.9638153,76.0214286 C71.6477875,76.6418118 71.1251394,77.1428571 70.4920383,77.4324042 C70.0092857,77.6780488 69.479669,77.8662021 68.933676,77.9837979 L68.9108537,77.9879791 C67.9923868,78.1336237 67.5291463,77.6477352 67.1209582,77.2188153 C67.0420383,77.1358885 66.9601568,77.0498258 66.8713066,76.9637631 C66.597439,76.6966899 66.2843728,76.4796167 65.9394251,76.3174216 C65.5765331,76.1383275 65.1650348,76.1311847 64.8035366,76.2939024 C64.6350697,76.3709059 64.5265331,76.5421603 64.5287979,76.7294425 C64.5364634,76.8824042 64.7016202,77.2430314 65.714338,77.7665505 C66.3265331,78.0576655 66.982108,78.3005226 67.6502265,78.4817073 C68.399007,78.7135889 68.5213066,79.095122 68.4946516,79.3750871 C68.4064983,80.3038328 66.2024913,80.9452962 65.8585889,80.9837979 C64.7970906,81.1277003 63.7202613,81.1350174 62.6530139,81.004878 C62.8895993,81.625784 63.0800174,82.2651568 63.2213066,82.9132404 C63.4098084,83.708885 63.6702613,84.8085366 63.486115,85.7506969 C63.2850697,86.7581882 62.6375087,87.6167247 61.6131185,88.2357143 L61.1779268,87.515331 Z" id="Fill-34" fill="#000000" mask="url(#mask-6)"></path>
                <path d="M71.8546864,13.8660453 C71.6728049,13.8660453 71.489878,13.8771951 71.3066028,13.9001916 C70.1508537,14.0440941 69.1205401,14.6296341 68.4052091,15.5486237 C66.9287282,17.4458362 67.2707143,20.1906098 69.1679268,21.6672648 L75.8370906,26.8578571 L73.5402265,27.2148258 L63.2295993,28.758554 C61.0025958,29.0911324 59.2079965,30.3475784 58.1759408,32.2968815 C57.135,34.2634321 57.0754181,36.604547 58.0167073,38.5589024 C58.5271603,39.6219686 59.309216,40.5374739 60.2792509,41.2069861 L69.6289024,47.7839895 C69.6769861,47.8193554 69.719669,47.8491463 69.7627003,47.8782404 C71.7539895,49.2271951 74.4712369,48.7043728 75.8200174,46.7129094 C76.4731533,45.7484495 76.7116551,44.5871254 76.4916202,43.4430488 C76.2714111,42.2991463 75.6189721,41.3092509 74.654338,40.656115 L69.039007,36.7054181 L81.9639199,34.7712718 C83.7820383,34.4982753 85.3506794,33.5427003 86.3802962,32.0810279 C87.4386585,30.5789373 87.8428397,28.6883449 87.489878,26.8940941 C87.1855226,25.3312021 86.3203659,23.9404355 85.0536411,22.9770209 L74.5238502,14.7860801 C73.7506794,14.1841638 72.8191463,13.8660453 71.8546864,13.8660453 M72.1977178,49.4717944 C71.1682753,49.4717944 70.1625261,49.1653484 69.2910976,48.5752787 C69.239878,48.5406098 69.1888328,48.504547 69.1386585,48.4679617 L59.7980662,41.8974042 C58.7109582,41.1468815 57.8316899,40.1179617 57.2583449,38.9235366 C56.2017247,36.7296341 56.2667073,34.1050697 57.4323868,31.9031533 C58.5757666,29.7433972 60.6433624,28.2937456 63.1052091,27.926324 L73.7830836,26.3256272 L68.6510279,22.3313763 C66.3877875,20.5697038 65.9795993,17.2951394 67.7412718,15.0317247 C68.5945819,13.9353833 69.8238502,13.2369512 71.2024216,13.0651742 C72.5811672,12.8933972 73.9444077,13.2686585 75.0407491,14.1219686 L85.5667073,22.310122 C86.9942334,23.3958362 87.9717596,24.967439 88.3154878,26.7324216 C88.7127003,28.7501916 88.2581707,30.8766725 87.0684495,32.5656969 C85.9048606,34.2170906 84.1363937,35.2960105 82.0886585,35.6035017 L82.0884843,35.6035017 L71.2397038,37.2270209 L75.1320383,39.9634321 C76.2769861,40.7386934 77.0553833,41.9193554 77.3179268,43.2841638 C77.5804704,44.6487979 77.2959756,46.0341638 76.5167073,47.1848606 C75.737439,48.3353833 74.5566028,49.1137805 73.1917944,49.3764983 C72.8604355,49.4402613 72.5278571,49.4717944 72.1977178,49.4717944" id="Fill-35" fill="#000000" mask="url(#mask-6)"></path>
                <path d="M55.9356098,55.3947909 L55.8206272,52.3582056 L54.4739373,53.7379965 C53.9981533,54.2240592 53.218885,54.2334669 52.731777,53.7589024 C52.2457143,53.2832927 52.2363066,52.5038502 52.7108711,52.0167422 L55.1237631,49.5533275 C55.8258537,48.8348606 56.9772474,48.8216202 57.6957143,49.5235366 C58.029338,49.8494948 58.2249826,50.2911324 58.24223,50.7571603 L58.3554704,53.8547213 L59.3485017,52.734338 C59.7988502,52.2247561 60.5772474,52.176324 61.0870035,52.6266725 C61.088223,52.627892 61.0894425,52.6289373 61.090662,52.6299826 C61.601115,53.0812021 61.6490244,53.8606446 61.1979791,54.3710976 L61.1969338,54.3721429 L59.2404878,56.5794599 C58.5537282,57.3632578 57.3617422,57.4418293 56.5779443,56.7550697 C56.1845645,56.4102962 55.9518118,55.9176132 55.9356098,55.3947909" id="Fill-36" fill="#DCE5F6" mask="url(#mask-6)"></path>
                <path d="M66.029669,60.8720557 L67.4634669,60.5514983 L66.6882056,60.0288502 C66.4146864,59.8447038 66.3416899,59.4741463 66.5244425,59.1995819 C66.7087631,58.9258885 67.0800174,58.8534146 67.3537108,59.0377352 L68.7369861,59.9626481 C69.140993,60.2325087 69.249878,60.7788502 68.9801916,61.1828571 C68.8542334,61.3715331 68.6605052,61.5042857 68.4390767,61.5532404 L66.9704355,61.8844251 L67.5923868,62.2589895 C67.8740941,62.4288502 67.9648606,62.794878 67.795,63.0767596 C67.7948258,63.077108 67.7946516,63.0774564 67.7944774,63.0776307 C67.6242683,63.3596864 67.2580662,63.4509756 66.975662,63.2814634 L65.7561498,62.5447038 C65.3240941,62.2865157 65.1831533,61.727108 65.4413415,61.2952265 C65.5704355,61.0788502 65.7835017,60.9257143 66.029669,60.8720557" id="Fill-37" fill="#DCE5F6" mask="url(#mask-6)"></path>
                <path d="M62.4042334,69.2466725 L62.5209582,68.2884843 L62.0279268,68.6545122 C61.8544077,68.7837805 61.6087631,68.7480662 61.4793206,68.574547 C61.4793206,68.574547 61.4791463,68.5743728 61.4791463,68.5743728 C61.3505749,68.400331 61.3864634,68.1552091 61.5592857,68.0254181 L62.4303659,67.372108 C62.6864634,67.1813415 63.0488328,67.2341289 63.2397735,67.4902265 C63.3284495,67.6093902 63.3679965,67.7578223 63.3502265,67.9052091 L63.2317596,68.8843031 L63.5993554,68.5811672 C63.7664286,68.4437108 64.0134669,68.4674042 64.1510976,68.6344774 C64.1512718,68.6348258 64.151446,68.635 64.1516202,68.6351742 C64.2892509,68.8022474 64.2653833,69.0492857 64.0983101,69.1869164 C64.0979617,69.1870906 64.0977875,69.1872648 64.0976132,69.187439 L63.3728746,69.7832578 C63.1138153,69.9893554 62.7368118,69.9464983 62.5307143,69.687439 C62.4317596,69.5630488 62.3862892,69.4045122 62.4042334,69.2466725" id="Fill-38" fill="#DCE5F6" mask="url(#mask-6)"></path>
                <path d="M119.209024,64.0480836 L119.135854,64.171777 C119.080453,64.137108 119.022091,64.1067944 118.961638,64.0811847 L119.209024,64.0480836 Z" id="Fill-39" fill="#353642" mask="url(#mask-6)"></path>
            </g>
        </g>
    </g>
</svg>